<?xml version="1.0" encoding="UTF-8"?>
<svg version="1.1" xmlns="http://www.w3.org/2000/svg" width="1920" height="1920">
<path d="M0 0 C0.33 0.99 0.66 1.98 1 3 C2.0344428 2.97885887 2.0344428 2.97885887 3.08978343 2.95729065 C11.52574911 2.8625777 19.8279892 3.45536573 28.22393799 4.21484375 C29.73155796 4.34728469 31.23921857 4.47926354 32.74691558 4.61082458 C36.85900015 4.9709727 40.97048326 5.33761162 45.08189273 5.70537567 C49.52719431 6.10183763 53.97303311 6.49218853 58.41880798 6.88330078 C66.11113863 7.56085924 73.80312239 8.24224537 81.49488068 8.92626953 C92.61572499 9.91523493 103.73707886 10.89836843 114.85856363 11.88010216 C132.90460908 13.47325049 150.95023668 15.07108178 168.99560547 16.671875 C186.51980181 18.22642519 204.04419214 19.77875933 221.56884766 21.328125 C222.64997437 21.42370886 223.73110108 21.51929272 224.84498921 21.61777306 C230.26895627 22.0972995 235.69292716 22.5767825 241.11689997 23.0562439 C286.0785305 27.03076112 331.03948494 31.01288553 376 35 C375.85591397 36.56562134 375.70817649 38.13090682 375.55896282 39.69604778 C375.43616153 41.00360359 375.43616153 41.00360359 375.31087941 42.33757466 C374.80832129 46.64156982 373.85434543 50.82130379 372.8840332 55.0402832 C372.66810925 56.00128528 372.45218531 56.96228735 372.22971821 57.9524107 C371.50905411 61.15317175 370.7799087 64.35193842 370.05078125 67.55078125 C369.5282321 69.86373222 369.00622335 72.17680534 368.48471069 74.48999023 C367.21211495 80.12858714 365.93409823 85.76593539 364.65377021 91.40278113 C363.1518773 98.01664051 361.65693503 104.63206489 360.16257012 111.24762857 C357.620096 122.50280077 355.07380403 133.75710449 352.52486122 145.01081336 C348.25353439 163.86944002 343.99583969 182.73112972 339.7421875 201.59375 C339.57268924 202.3453747 339.40319097 203.09699939 339.22855639 203.87140059 C337.70626687 210.62191884 336.18404974 217.37245342 334.66197109 224.12301922 C332.54260218 233.52233955 330.42178032 242.92133099 328.29993439 252.32009244 C327.37268438 256.42756943 326.44567322 260.53510034 325.51866174 264.64263117 C324.80207043 267.81770352 324.08528615 270.9927321 323.36820602 274.16769409 C322.58058693 277.65507834 321.7934948 281.14258107 321.0065918 284.63012695 C320.75896591 285.72656336 320.51134003 286.82299976 320.25621033 287.95266151 C318.92781739 293.84473584 317.61411256 299.73976219 316.31680298 305.63876343 C316.04178105 306.8868513 315.76675913 308.13493917 315.48340321 309.42084789 C314.95509995 311.82176651 314.42904746 314.22318179 313.9055357 316.62514973 C313.67013986 317.69451362 313.43474401 318.76387751 313.19221497 319.86564636 C312.98554105 320.81121997 312.77886713 321.75679358 312.56593037 322.73102093 C312 325 312 325 311 327 C365.12 327 419.24 327 475 327 C474.84015625 348.44484375 474.6803125 369.8896875 474.515625 391.984375 C474.45905027 405.55605846 474.40740887 419.12749029 474.37890625 432.69921875 C474.36367326 439.82861743 474.34718934 446.95801154 474.32861328 454.08740234 C474.32633724 454.98091892 474.3240612 455.87443549 474.32171619 456.79502833 C474.28317766 471.20867296 474.17406272 485.62095952 474.03874949 500.03398344 C473.90138975 514.83283235 473.84017359 529.63059393 473.84919715 544.43008447 C473.85237609 553.55864998 473.79663323 562.68290925 473.6647661 571.81053922 C473.57995634 578.07533575 473.56931695 584.33756746 473.61614224 590.60275105 C473.64098365 594.2161765 473.63396225 597.82186649 473.53851509 601.43428612 C472.64530558 615.69608152 472.64530558 615.69608152 477.9494772 628.30118465 C482.67687092 632.20913557 487.86310255 634.70614789 493.53146887 636.96319437 C497.19363703 638.50133846 500.47456753 640.55013668 503.828125 642.66015625 C505.05308501 643.39142297 506.27974671 644.11985376 507.50878906 644.84423828 C510.1205114 646.39272885 512.73185015 647.94186167 515.34277344 649.49169922 C521.61220654 653.21282654 527.88309309 656.93148219 534.15679932 660.645401 C537.52178819 662.63760771 540.88604407 664.63104969 544.25 666.625 C544.91004028 667.01613983 545.57008057 667.40727966 546.25012207 667.81027222 C556.47030674 673.869802 566.63317912 680.0189191 576.77511597 686.20831299 C584.01539023 690.62369834 591.28832105 694.94223922 598.70776367 699.04907227 C603.40501349 701.64957139 608.01786752 704.37297799 612.61157227 707.15014648 C618.96892274 710.99166769 625.35824268 714.77857697 631.75 718.5625 C632.92098635 719.25592972 634.09196611 719.94937057 635.26293945 720.64282227 C637.65241227 722.05777642 640.04199798 723.47253972 642.43164062 724.88720703 C648.12221781 728.25624078 653.81099034 731.62832025 659.5 735 C661.74999206 736.33334673 663.99999208 737.66668004 666.25 739 C679.74999994 746.99999997 679.74999994 746.99999997 683.1262207 749.00073242 C685.37214111 750.3316422 687.61807207 751.66253418 689.86401367 752.9934082 C694.97314433 756.02094512 700.08219474 759.04861703 705.19082642 762.07699585 C716.12341171 768.55777995 727.05697384 775.03685664 738 781.5 C751.25528818 789.3288059 764.49684676 797.18077511 777.73937988 805.03112793 C789.92684745 812.2559621 802.11455234 819.48036807 814.3125 826.6875 C815.1981665 827.21093994 816.08383301 827.73437988 816.99633789 828.27368164 C821.53566336 830.95584013 826.07699335 833.63453225 830.62109375 836.30859375 C842.14866745 843.0974853 853.60975133 849.98304433 865 857 C863.12944789 861.18224093 860.34523991 863.36024625 856.75 866.0625 C855.47380334 867.042767 854.19776605 868.0232415 852.921875 869.00390625 C852.26896484 869.50164551 851.61605469 869.99938477 850.94335938 870.51220703 C847.93912069 872.81218574 844.97055611 875.15679504 842 877.5 C840.83352568 878.41691141 839.66685838 879.33357738 838.5 880.25 C837.9225 880.70375 837.345 881.1575 836.75 881.625 C825.66666667 890.33333333 814.58333333 899.04166667 803.5 907.75 C802.92282227 908.2035083 802.34564453 908.6570166 801.75097656 909.12426758 C800.58109984 910.04343313 799.41117777 910.96254095 798.24121094 911.8815918 C795.37328843 914.13456094 792.5060901 916.38843723 789.640625 918.64453125 C782.34109862 924.38952887 775.016951 930.10203617 767.68164062 935.80126953 C761.33216972 940.73658931 755.00408164 945.69850748 748.68554688 950.67333984 C745.79191173 952.95086206 742.89580677 955.22524007 740 957.5 C738.83332204 958.4166523 737.66665536 959.33331895 736.5 960.25 C710.83333333 980.41666667 685.16666667 1000.58333333 659.5 1020.75 C658.92282227 1021.2035083 658.34564453 1021.6570166 657.75097656 1022.12426758 C656.58109984 1023.04343313 655.41117777 1023.96254095 654.24121094 1024.8815918 C651.37328843 1027.13456094 648.5060901 1029.38843723 645.640625 1031.64453125 C638.34109862 1037.38952887 631.016951 1043.10203617 623.68164062 1048.80126953 C617.33216972 1053.73658931 611.00408164 1058.69850748 604.68554688 1063.67333984 C601.79191173 1065.95086206 598.89580677 1068.22524007 596 1070.5 C594.83332204 1071.4166523 593.66665536 1072.33331895 592.5 1073.25 C562.16666667 1097.08333333 531.83333333 1120.91666667 501.5 1144.75 C500.92282227 1145.2035083 500.34564453 1145.6570166 499.75097656 1146.12426758 C498.58109984 1147.04343313 497.41117777 1147.96254095 496.24121094 1148.8815918 C493.37328843 1151.13456094 490.5060901 1153.38843723 487.640625 1155.64453125 C480.34109862 1161.38952887 473.016951 1167.10203617 465.68164062 1172.80126953 C459.33216972 1177.73658931 453.00408164 1182.69850748 446.68554688 1187.67333984 C443.79191173 1189.95086206 440.89580677 1192.22524007 438 1194.5 C436.83332204 1195.4166523 435.66665536 1196.33331895 434.5 1197.25 C408.83333333 1217.41666667 383.16666667 1237.58333333 357.5 1257.75 C356.92282227 1258.2035083 356.34564453 1258.6570166 355.75097656 1259.12426758 C354.58109984 1260.04343313 353.41117777 1260.96254095 352.24121094 1261.8815918 C349.37328843 1264.13456094 346.5060901 1266.38843723 343.640625 1268.64453125 C336.34109862 1274.38952887 329.016951 1280.10203617 321.68164062 1285.80126953 C315.33216972 1290.73658931 309.00408164 1295.69850748 302.68554688 1300.67333984 C299.79191173 1302.95086206 296.89580677 1305.22524007 294 1307.5 C292.83332204 1308.4166523 291.66665536 1309.33331895 290.5 1310.25 C227.50000004 1359.74999997 227.50000004 1359.74999997 225.74780273 1361.12670898 C224.58843767 1362.03765025 223.42909499 1362.94862001 222.26977539 1363.85961914 C219.24158315 1366.23912615 216.2129311 1368.61804469 213.18359375 1370.99609375 C212.55646484 1371.48851562 211.92933594 1371.9809375 211.28320312 1372.48828125 C210.09064001 1373.42466414 208.89794118 1374.36087423 207.70507812 1375.296875 C205.19094129 1377.2712031 202.72861937 1379.24340325 200.34765625 1381.37890625 C198 1383 198 1383 196.20410156 1382.93164062 C192.96035913 1381.56055942 190.80716439 1379.19455634 188.38671875 1376.71484375 C187.85407913 1376.18033096 187.32143951 1375.64581818 186.7726593 1375.09510803 C185.64545361 1373.96118377 184.52184972 1372.8236693 183.40161133 1371.68286133 C181.71083078 1369.96125613 180.00993062 1368.25023613 178.30664062 1366.54101562 C173.28987349 1361.48770452 168.39764868 1356.39681147 163.76879883 1350.98266602 C159.88420937 1346.62838707 155.65378055 1342.59502835 151.5 1338.5 C146.0894859 1333.16601368 140.78827169 1327.83955219 135.84570312 1322.06835938 C131.93450948 1317.68533919 127.68169376 1313.62254675 123.5 1309.5 C118.0894859 1304.16601368 112.78827169 1298.83955219 107.84570312 1293.06835938 C103.93450948 1288.68533919 99.68169376 1284.62254675 95.5 1280.5 C90.0894859 1275.16601368 84.78827169 1269.83955219 79.84570312 1264.06835938 C75.93450948 1259.68533919 71.68169376 1255.62254675 67.5 1251.5 C62.0894859 1246.16601368 56.78827169 1240.83955219 51.84570312 1235.06835938 C47.93450948 1230.68533919 43.68169376 1226.62254675 39.5 1222.5 C29.33915761 1212.48287532 29.33915761 1212.48287532 25.53125 1208.03125 C20.99066164 1202.72942959 15.96684481 1197.89693613 11 1193 C5.4231709 1187.50166514 -0.07773614 1182.00607216 -5.171875 1176.05078125 C-9.0751726 1171.67208202 -13.32437479 1167.61656403 -17.5 1163.5 C-22.9105141 1158.16601368 -28.21172831 1152.83955219 -33.15429688 1147.06835938 C-37.06549052 1142.68533919 -41.31830624 1138.62254675 -45.5 1134.5 C-50.9105141 1129.16601368 -56.21172831 1123.83955219 -61.15429688 1118.06835938 C-65.06549052 1113.68533919 -69.31830624 1109.62254675 -73.5 1105.5 C-83.66084239 1095.48287532 -83.66084239 1095.48287532 -87.46875 1091.03125 C-87.98685084 1090.44344159 -88.50495169 1089.85563318 -89.03875256 1089.2500124 C-90.46634099 1087.61223248 -91.85402615 1085.93941143 -93.21665668 1084.24720287 C-98.0896666 1078.68454407 -101.41455802 1075.36408782 -109.0933075 1074.63923645 C-111.81157803 1074.58979893 -114.48793878 1074.59817624 -117.2019043 1074.65942383 C-118.70107333 1074.65264988 -120.20022701 1074.64103731 -121.69932556 1074.625 C-125.73689297 1074.59532345 -129.77129566 1074.63264822 -133.80855536 1074.68273759 C-138.03933525 1074.72359406 -142.26980193 1074.70183185 -146.50068665 1074.68693542 C-154.4977473 1074.66817878 -162.49352598 1074.70509439 -170.4903639 1074.76240796 C-179.60053403 1074.82496073 -188.71037402 1074.8248504 -197.82071817 1074.81968272 C-216.54762095 1074.81045337 -235.27350667 1074.87924627 -254 1075 C-253.98118711 1074.20967691 -253.96237423 1073.41935383 -253.94299126 1072.60508156 C-253.49149687 1053.25249351 -253.18825623 1033.90257003 -253.04403496 1014.54519081 C-252.97081459 1005.18287744 -252.84996622 995.82598806 -252.61132812 986.46630859 C-252.40310871 978.29470417 -252.29000969 970.12784838 -252.28466618 961.95350778 C-252.27868813 957.63417352 -252.22954851 953.32640999 -252.0658226 949.00993729 C-251.49168724 933.16029517 -251.1934498 919.58532126 -262.41408312 907.36235321 C-267.2944949 902.35456515 -272.60354009 897.87603399 -278.03950119 893.48924637 C-281.81649794 890.31347227 -284.89659458 886.81242158 -288 883 C-289.6562779 881.28178202 -291.33141556 879.58138951 -293.03125 877.90625 C-293.92457031 877.02066406 -294.81789063 876.13507812 -295.73828125 875.22265625 C-296.64964844 874.32417969 -297.56101562 873.42570312 -298.5 872.5 C-303.9105141 867.16601368 -309.21172831 861.83955219 -314.15429688 856.06835938 C-318.06549052 851.68533919 -322.31830624 847.62254675 -326.5 843.5 C-331.9105141 838.16601368 -337.21172831 832.83955219 -342.15429688 827.06835938 C-346.06549052 822.68533919 -350.31830624 818.62254675 -354.5 814.5 C-359.9105141 809.16601368 -365.21172831 803.83955219 -370.15429688 798.06835938 C-374.06549052 793.68533919 -378.31830624 789.62254675 -382.5 785.5 C-387.9105141 780.16601368 -393.21172831 774.83955219 -398.15429688 769.06835938 C-402.06549052 764.68533919 -406.31830624 760.62254675 -410.5 756.5 C-420.66084239 746.48287532 -420.66084239 746.48287532 -424.46875 742.03125 C-429.00933836 736.72942959 -434.03315519 731.89693613 -439 727 C-449.65651233 716.4934788 -449.65651233 716.4934788 -453.5078125 711.98046875 C-458.39653748 706.25946531 -463.91099229 701.11564367 -469.33691406 695.90991211 C-470.75181945 694.54948105 -472.1534571 693.17529327 -473.5546875 691.80078125 C-474.79968018 690.59675659 -474.79968018 690.59675659 -476.06982422 689.3684082 C-478.18781808 686.76953918 -478.87544877 685.33535424 -479 682 C-478.20239258 680.14160156 -478.20239258 680.14160156 -476.89453125 678.390625 C-476.41193848 677.72764404 -475.9293457 677.06466309 -475.43212891 676.3815918 C-474.6304126 675.32645386 -474.6304126 675.32645386 -473.8125 674.25 C-472.69103491 672.72032426 -471.56995133 671.19036875 -470.44921875 669.66015625 C-469.87220215 668.8830127 -469.29518555 668.10586914 -468.70068359 667.30517578 C-466.11879075 663.80557311 -463.62293326 660.24725488 -461.125 656.6875 C-460.12519998 655.27069219 -459.12519624 653.85402812 -458.125 652.4375 C-452.39452743 644.30721024 -446.69975726 636.15183386 -441 628 C-433.86446619 617.79470818 -426.72189219 607.59489545 -419.53417969 597.42626953 C-413.32605403 588.63859596 -407.16534054 579.81771441 -401 571 C-393.86446619 560.79470818 -386.72189219 550.59489545 -379.53417969 540.42626953 C-373.32605403 531.63859596 -367.16534054 522.81771441 -361 514 C-353.86446619 503.79470818 -346.72189219 493.59489545 -339.53417969 483.42626953 C-333.32605403 474.63859596 -327.16534054 465.81771441 -321 457 C-313.86446619 446.79470818 -306.72189219 436.59489545 -299.53417969 426.42626953 C-293.32605403 417.63859596 -287.16534054 408.81771441 -281 400 C-279.2151252 397.44725921 -277.43016026 394.89461858 -275.64086914 392.3449707 C-274.46282408 390.65551108 -273.29531298 388.95865761 -272.13842773 387.25463867 C-269.45475603 383.32947843 -266.78415701 379.6644013 -263.48828125 376.23046875 C-251.03492462 362.57253027 -253.4343205 344.40584631 -254 327 C-253.31599121 327.07444336 -252.63198242 327.14888672 -251.92724609 327.22558594 C-238.71368678 328.63697933 -238.71368678 328.63697933 -226.66748047 324.31201172 C-222.44263603 319.7068362 -219.52100142 314.2830711 -216.57275391 308.80615234 C-214.04760959 304.30071788 -211.01910008 300.18310549 -208 296 C-206.83327092 294.33910959 -205.66921093 292.67634105 -204.5078125 291.01171875 C-203.93063477 290.18720215 -203.35345703 289.36268555 -202.75878906 288.51318359 C-200.98183466 285.97404304 -199.20567026 283.43435149 -197.4296875 280.89453125 C-191.48305871 272.39189535 -185.52321098 263.89909294 -179.53417969 255.42626953 C-173.32605403 246.63859596 -167.16534054 237.81771441 -161 229 C-153.86446619 218.79470818 -146.72189219 208.59489545 -139.53417969 198.42626953 C-133.32605403 189.63859596 -127.16534054 180.81771441 -121 172 C-113.86446619 161.79470818 -106.72189219 151.59489545 -99.53417969 141.42626953 C-93.32605403 132.63859596 -87.16534054 123.81771441 -81 115 C-73.86446619 104.79470818 -66.72189219 94.59489545 -59.53417969 84.42626953 C-53.32605403 75.63859596 -47.16534054 66.81771441 -41 58 C-33.87413666 47.80853896 -26.74387019 37.62064407 -19.56274414 27.46801758 C-16.75589263 23.49685641 -13.96088378 19.51770127 -11.17578125 15.53125 C-10.53318359 14.61150391 -9.89058594 13.69175781 -9.22851562 12.74414062 C-7.96979647 10.94138791 -6.71195641 9.13802102 -5.45507812 7.33398438 C-4.60526367 6.11678711 -4.60526367 6.11678711 -3.73828125 4.875 C-3.23337158 4.15054687 -2.72846191 3.42609375 -2.20825195 2.6796875 C-1 1 -1 1 0 0 Z " fill="#000000" transform="translate(767,268)"/>
<path d="M0 0 C9.29707852 5.3126163 18.5773131 10.64437275 27.8125 16.0625 C28.4311795 16.42516968 29.04985901 16.78783936 29.68728638 17.16149902 C39.50799501 22.92039325 49.28635523 28.74706888 59.04077148 34.61767578 C68.35762845 40.22371367 77.71728272 45.75528636 87.08349609 51.27832031 C92.45553621 54.4495598 97.82128146 57.63142286 103.1875 60.8125 C104.88688721 61.81978149 104.88688721 61.81978149 106.62060547 62.84741211 C108.92858101 64.21543941 111.2365178 65.58353206 113.54443359 66.95166016 C119.19590084 70.30176185 124.8479973 73.6508018 130.5 77 C132.75000264 78.33332887 135.00000264 79.66666221 137.25 81 C138.920625 81.99 138.920625 81.99 140.625 83 C204.75000003 121.00000002 204.75000003 121.00000002 208.1262207 123.00073242 C210.37214111 124.3316422 212.61807207 125.66253418 214.86401367 126.9934082 C219.97314433 130.02094512 225.08219474 133.04861703 230.19082642 136.07699585 C241.12341171 142.55777995 252.05697384 149.03685664 263 155.5 C276.25528818 163.3288059 289.49684676 171.18077511 302.73937988 179.03112793 C314.92684745 186.2559621 327.11455234 193.48036807 339.3125 200.6875 C340.64099976 201.47265991 340.64099976 201.47265991 341.99633789 202.27368164 C346.53566336 204.95584013 351.07699335 207.63453225 355.62109375 210.30859375 C367.14866745 217.0974853 378.60975133 223.98304433 390 231 C388.12944789 235.18224093 385.34523991 237.36024625 381.75 240.0625 C380.47380334 241.042767 379.19776605 242.0232415 377.921875 243.00390625 C377.26896484 243.50164551 376.61605469 243.99938477 375.94335938 244.51220703 C372.93912069 246.81218574 369.97055611 249.15679504 367 251.5 C365.83352568 252.41691141 364.66685838 253.33357738 363.5 254.25 C362.9225 254.70375 362.345 255.1575 361.75 255.625 C350.66666667 264.33333333 339.58333333 273.04166667 328.5 281.75 C327.6342334 282.43026245 327.6342334 282.43026245 326.75097656 283.12426758 C325.58109984 284.04343313 324.41117777 284.96254095 323.24121094 285.8815918 C320.37328843 288.13456094 317.5060901 290.38843723 314.640625 292.64453125 C307.34109862 298.38952887 300.016951 304.10203617 292.68164062 309.80126953 C286.33216972 314.73658931 280.00408164 319.69850748 273.68554688 324.67333984 C270.79191173 326.95086206 267.89580677 329.22524007 265 331.5 C263.83332204 332.4166523 262.66665536 333.33331895 261.5 334.25 C235.83333333 354.41666667 210.16666667 374.58333333 184.5 394.75 C183.6342334 395.43026245 183.6342334 395.43026245 182.75097656 396.12426758 C181.58109984 397.04343313 180.41117777 397.96254095 179.24121094 398.8815918 C176.37328843 401.13456094 173.5060901 403.38843723 170.640625 405.64453125 C163.34109862 411.38952887 156.016951 417.10203617 148.68164062 422.80126953 C142.33216972 427.73658931 136.00408164 432.69850748 129.68554688 437.67333984 C126.79191173 439.95086206 123.89580677 442.22524007 121 444.5 C119.83332204 445.4166523 118.66665536 446.33331895 117.5 447.25 C87.16666667 471.08333333 56.83333333 494.91666667 26.5 518.75 C25.92282227 519.2035083 25.34564453 519.6570166 24.75097656 520.12426758 C23.58109984 521.04343313 22.41117777 521.96254095 21.24121094 522.8815918 C18.37328843 525.13456094 15.5060901 527.38843723 12.640625 529.64453125 C5.34109862 535.38952887 -1.983049 541.10203617 -9.31835938 546.80126953 C-15.66783028 551.73658931 -21.99591836 556.69850748 -28.31445312 561.67333984 C-31.20808827 563.95086206 -34.10419323 566.22524007 -37 568.5 C-38.16667796 569.4166523 -39.33334464 570.33331895 -40.5 571.25 C-66.16666667 591.41666667 -91.83333333 611.58333333 -117.5 631.75 C-118.07717773 632.2035083 -118.65435547 632.6570166 -119.24902344 633.12426758 C-120.41890016 634.04343313 -121.58882223 634.96254095 -122.75878906 635.8815918 C-125.62671157 638.13456094 -128.4939099 640.38843723 -131.359375 642.64453125 C-138.65890138 648.38952887 -145.983049 654.10203617 -153.31835938 659.80126953 C-159.66783028 664.73658931 -165.99591836 669.69850748 -172.31445312 674.67333984 C-175.20808827 676.95086206 -178.10419323 679.22524007 -181 681.5 C-182.16667796 682.4166523 -183.33334464 683.33331895 -184.5 684.25 C-247.5 733.75 -247.5 733.75 -249.25219727 735.12670898 C-250.41156233 736.03765025 -251.57090501 736.94862001 -252.73022461 737.85961914 C-255.75841685 740.23912615 -258.7870689 742.61804469 -261.81640625 744.99609375 C-262.75709961 745.73472656 -262.75709961 745.73472656 -263.71679688 746.48828125 C-264.90935999 747.42466414 -266.10205882 748.36087423 -267.29492188 749.296875 C-269.80905871 751.2712031 -272.27138063 753.24340325 -274.65234375 755.37890625 C-277 757 -277 757 -278.79589844 756.93164062 C-282.03964087 755.56055942 -284.19283561 753.19455634 -286.61328125 750.71484375 C-287.14592087 750.18033096 -287.67856049 749.64581818 -288.2273407 749.09510803 C-289.35454639 747.96118377 -290.47815028 746.8236693 -291.59838867 745.68286133 C-293.28916922 743.96125613 -294.99006938 742.25023613 -296.69335938 740.54101562 C-301.71012651 735.48770452 -306.60235132 730.39681147 -311.23120117 724.98266602 C-315.11579063 720.62838707 -319.34621945 716.59502835 -323.5 712.5 C-328.9105141 707.16601368 -334.21172831 701.83955219 -339.15429688 696.06835938 C-343.06549052 691.68533919 -347.31830624 687.62254675 -351.5 683.5 C-356.9105141 678.16601368 -362.21172831 672.83955219 -367.15429688 667.06835938 C-371.06549052 662.68533919 -375.31830624 658.62254675 -379.5 654.5 C-384.9105141 649.16601368 -390.21172831 643.83955219 -395.15429688 638.06835938 C-399.06549052 633.68533919 -403.31830624 629.62254675 -407.5 625.5 C-412.9105141 620.16601368 -418.21172831 614.83955219 -423.15429688 609.06835938 C-427.06549052 604.68533919 -431.31830624 600.62254675 -435.5 596.5 C-445.66084239 586.48287532 -445.66084239 586.48287532 -449.46875 582.03125 C-454.00933836 576.72942959 -459.03315519 571.89693613 -464 567 C-469.5768291 561.50166514 -475.07773614 556.00607216 -480.171875 550.05078125 C-484.0751726 545.67208202 -488.32437479 541.61656403 -492.5 537.5 C-497.9105141 532.16601368 -503.21172831 526.83955219 -508.15429688 521.06835938 C-512.06549052 516.68533919 -516.31830624 512.62254675 -520.5 508.5 C-525.9105141 503.16601368 -531.21172831 497.83955219 -536.15429688 492.06835938 C-540.06549052 487.68533919 -544.31830624 483.62254675 -548.5 479.5 C-554.00271959 474.07511237 -559.40913764 468.6580255 -564.43603516 462.78662109 C-567.26451285 459.55546284 -570.35625889 456.60240147 -573.43164062 453.60742188 C-574.63761563 452.42151857 -575.82119358 451.21291293 -577 450 C-577 449.67 -577 449.34 -577 449 C-386.59 449 -196.18 449 0 449 C0 300.83 0 152.66 0 0 Z " fill="#F5C277" transform="translate(1242,894)"/>
<path d="M0 0 C0.33 0.99 0.66 1.98 1 3 C2.0344428 2.97885887 2.0344428 2.97885887 3.08978343 2.95729065 C11.52574911 2.8625777 19.8279892 3.45536573 28.22393799 4.21484375 C29.73155796 4.34728469 31.23921857 4.47926354 32.74691558 4.61082458 C36.85900015 4.9709727 40.97048326 5.33761162 45.08189273 5.70537567 C49.52719431 6.10183763 53.97303311 6.49218853 58.41880798 6.88330078 C66.11113863 7.56085924 73.80312239 8.24224537 81.49488068 8.92626953 C92.61572499 9.91523493 103.73707886 10.89836843 114.85856363 11.88010216 C132.90460908 13.47325049 150.95023668 15.07108178 168.99560547 16.671875 C186.51980181 18.22642519 204.04419214 19.77875933 221.56884766 21.328125 C222.64997437 21.42370886 223.73110108 21.51929272 224.84498921 21.61777306 C230.26895627 22.0972995 235.69292716 22.5767825 241.11689997 23.0562439 C286.0785305 27.03076112 331.03948494 31.01288553 376 35 C375.85591397 36.56562134 375.70817649 38.13090682 375.55896282 39.69604778 C375.43616153 41.00360359 375.43616153 41.00360359 375.31087941 42.33757466 C374.80832129 46.64156982 373.85434543 50.82130379 372.8840332 55.0402832 C372.66810925 56.00128528 372.45218531 56.96228735 372.22971821 57.9524107 C371.50905411 61.15317175 370.7799087 64.35193842 370.05078125 67.55078125 C369.5282321 69.86373222 369.00622335 72.17680534 368.48471069 74.48999023 C367.21211495 80.12858714 365.93409823 85.76593539 364.65377021 91.40278113 C363.1518773 98.01664051 361.65693503 104.63206489 360.16257012 111.24762857 C357.620096 122.50280077 355.07380403 133.75710449 352.52486122 145.01081336 C348.25353439 163.86944002 343.99583969 182.73112972 339.7421875 201.59375 C339.57268924 202.3453747 339.40319097 203.09699939 339.22855639 203.87140059 C337.70626687 210.62191884 336.18404974 217.37245342 334.66197109 224.12301922 C332.54260218 233.52233955 330.42178032 242.92133099 328.29993439 252.32009244 C327.37268438 256.42756943 326.44567322 260.53510034 325.51866174 264.64263117 C324.80207043 267.81770352 324.08528615 270.9927321 323.36820602 274.16769409 C322.58058693 277.65507834 321.7934948 281.14258107 321.0065918 284.63012695 C320.75896591 285.72656336 320.51134003 286.82299976 320.25621033 287.95266151 C318.92781739 293.84473584 317.61411256 299.73976219 316.31680298 305.63876343 C316.04178105 306.8868513 315.76675913 308.13493917 315.48340321 309.42084789 C314.95509995 311.82176651 314.42904746 314.22318179 313.9055357 316.62514973 C313.67013986 317.69451362 313.43474401 318.76387751 313.19221497 319.86564636 C312.98554105 320.81121997 312.77886713 321.75679358 312.56593037 322.73102093 C312 325 312 325 311 327 C132.8 327 -45.4 327 -229 327 C-224.50525246 319.1341918 -224.50525246 319.1341918 -222.15234375 315.94140625 C-221.63551025 315.2345166 -221.11867676 314.52762695 -220.58618164 313.79931641 C-219.77008423 312.69209229 -219.77008423 312.69209229 -218.9375 311.5625 C-214.73379035 305.80148959 -210.58297667 300.0155007 -206.5625 294.125 C-197.68836347 281.13177695 -188.61671239 268.27585205 -179.53491211 255.42724609 C-173.32643301 246.63932466 -167.16557325 237.81804724 -161 229 C-153.86446619 218.79470818 -146.72189219 208.59489545 -139.53417969 198.42626953 C-133.32605403 189.63859596 -127.16534054 180.81771441 -121 172 C-113.86446619 161.79470818 -106.72189219 151.59489545 -99.53417969 141.42626953 C-93.32605403 132.63859596 -87.16534054 123.81771441 -81 115 C-73.86446619 104.79470818 -66.72189219 94.59489545 -59.53417969 84.42626953 C-53.32605403 75.63859596 -47.16534054 66.81771441 -41 58 C-33.87413666 47.80853896 -26.74387019 37.62064407 -19.56274414 27.46801758 C-16.75589263 23.49685641 -13.96088378 19.51770127 -11.17578125 15.53125 C-10.53318359 14.61150391 -9.89058594 13.69175781 -9.22851562 12.74414062 C-7.96979647 10.94138791 -6.71195641 9.13802102 -5.45507812 7.33398438 C-4.88853516 6.52251953 -4.32199219 5.71105469 -3.73828125 4.875 C-3.23337158 4.15054687 -2.72846191 3.42609375 -2.20825195 2.6796875 C-1 1 -1 1 0 0 Z " fill="#ED8A97" transform="translate(767,268)"/>
<path d="M0 0 C0.33 0 0.66 0 1 0 C1 182.82 1 365.64 1 554 C-3.11867191 550.46970979 -7.0076261 547.11951474 -10.8125 543.3203125 C-11.66070312 542.47339844 -12.50890625 541.62648438 -13.3828125 540.75390625 C-14.24648438 539.88636719 -15.11015625 539.01882813 -16 538.125 C-16.86367188 537.26519531 -17.72734375 536.40539063 -18.6171875 535.51953125 C-22.35133321 531.77971054 -26.02921748 528.03757906 -29.46875 524.0234375 C-33.86429791 518.90602122 -38.69890395 514.23318804 -43.5 509.5 C-48.9105141 504.16601368 -54.21172831 498.83955219 -59.15429688 493.06835938 C-63.06549052 488.68533919 -67.31830624 484.62254675 -71.5 480.5 C-76.9105141 475.16601368 -82.21172831 469.83955219 -87.15429688 464.06835938 C-91.06549052 459.68533919 -95.31830624 455.62254675 -99.5 451.5 C-104.9105141 446.16601368 -110.21172831 440.83955219 -115.15429688 435.06835938 C-119.06549052 430.68533919 -123.31830624 426.62254675 -127.5 422.5 C-132.9105141 417.16601368 -138.21172831 411.83955219 -143.15429688 406.06835938 C-147.06549052 401.68533919 -151.31830624 397.62254675 -155.5 393.5 C-165.66084239 383.48287532 -165.66084239 383.48287532 -169.46875 379.03125 C-174.00933836 373.72942959 -179.03315519 368.89693613 -184 364 C-194.65651233 353.4934788 -194.65651233 353.4934788 -198.5078125 348.98046875 C-203.39653748 343.25946531 -208.91099229 338.11564367 -214.33691406 332.90991211 C-215.75181945 331.54948105 -217.1534571 330.17529327 -218.5546875 328.80078125 C-219.79968018 327.59675659 -219.79968018 327.59675659 -221.06982422 326.3684082 C-223.18781808 323.76953918 -223.87544877 322.33535424 -224 319 C-223.20239258 317.14160156 -223.20239258 317.14160156 -221.89453125 315.390625 C-221.41193848 314.72764404 -220.9293457 314.06466309 -220.43212891 313.3815918 C-219.6304126 312.32645386 -219.6304126 312.32645386 -218.8125 311.25 C-217.69103491 309.72032426 -216.56995133 308.19036875 -215.44921875 306.66015625 C-214.87220215 305.8830127 -214.29518555 305.10586914 -213.70068359 304.30517578 C-211.11879075 300.80557311 -208.62293326 297.24725488 -206.125 293.6875 C-205.12519998 292.27069219 -204.12519624 290.85402812 -203.125 289.4375 C-197.39452743 281.30721024 -191.69975726 273.15183386 -186 265 C-178.86446619 254.79470818 -171.72189219 244.59489545 -164.53417969 234.42626953 C-158.32605403 225.63859596 -152.16534054 216.81771441 -146 208 C-138.86446619 197.79470818 -131.72189219 187.59489545 -124.53417969 177.42626953 C-118.32605403 168.63859596 -112.16534054 159.81771441 -106 151 C-98.86446619 140.79470818 -91.72189219 130.59489545 -84.53417969 120.42626953 C-78.32605403 111.63859596 -72.16534054 102.81771441 -66 94 C-58.86446619 83.79470818 -51.72189219 73.59489545 -44.53417969 63.42626953 C-38.32605403 54.63859596 -32.16534054 45.81771441 -26 37 C-21.90719936 31.14644707 -17.812208 25.29444996 -13.71240234 19.44580078 C-11.96797947 16.95426552 -10.22806552 14.45961958 -8.48828125 11.96484375 C-7.3881831 10.39311558 -6.28792969 8.82149607 -5.1875 7.25 C-4.42252197 6.14942261 -4.42252197 6.14942261 -3.64208984 5.02661133 C-2.4533019 3.33307168 -1.2304168 1.66354075 0 0 Z " fill="#ED8C96" transform="translate(512,631)"/>
<path d="M0 0 C0.83210999 0.00021149 1.66421997 0.00042297 2.52154541 0.00064087 C15.83656716 0.03432513 28.52054185 0.90747412 41.4375 4.375 C42.15405762 4.56223633 42.87061523 4.74947266 43.60888672 4.94238281 C59.37063088 9.17426311 74.69143267 15.55642506 88.4375 24.375 C89.3133374 24.87652588 90.1891748 25.37805176 91.09155273 25.89477539 C94.12623415 29.10315592 94.00590813 30.94585684 94.00398254 35.23175049 C93.97817612 36.12980408 93.95236969 37.02785767 93.92578125 37.953125 C93.91516914 39.34298615 93.91516914 39.34298615 93.90434265 40.76092529 C93.87638371 43.71644285 93.81364272 46.67005644 93.75 49.625 C93.72491906 51.63018095 93.70210553 53.63539163 93.68164062 55.640625 C93.62655204 60.55281543 93.54026911 65.46358507 93.4375 70.375 C92.16748162 69.42684028 90.89806822 68.47787021 89.62890625 67.52856445 C88.92193604 67.00019485 88.21496582 66.47182526 87.48657227 65.92744446 C85.76052577 64.61973493 84.06406913 63.27310202 82.375 61.91796875 C61.90674586 45.50525965 35.97303682 33.85559187 9.4375 33.375 C8.43074219 33.33632813 7.42398438 33.29765625 6.38671875 33.2578125 C-22.15820498 32.6179512 -48.96101575 39.89851 -70.25 59.625 C-95.60683685 86.46252806 -100.34617823 125.81968064 -99.90625 161.15234375 C-98.85813834 193.08044514 -89.4003431 225.617848 -65.8125 248.0625 C-48.24334438 263.26553095 -26.4717063 269.59400433 -3.5625 270.375 C-2.139375 270.45234375 -2.139375 270.45234375 -0.6875 270.53125 C30.72149845 271.49274995 61.4994256 260.15204237 85.3515625 240.00390625 C87.31345367 238.47186764 89.17461701 237.39380931 91.4375 236.375 C91.4375 235.715 91.4375 235.055 91.4375 234.375 C92.0975 234.375 92.7575 234.375 93.4375 234.375 C93.6856016 240.08553543 93.86654829 245.79290846 93.98681641 251.50756836 C94.03696277 253.44887955 94.10510381 255.38981565 94.19189453 257.32983398 C94.88892058 273.31633136 94.88892058 273.31633136 91.55151367 278.05004883 C88.92611357 279.94869458 86.43602441 281.15776968 83.4375 282.375 C81.65460346 283.32914604 79.87464199 284.28879673 78.09765625 285.25390625 C76.2382525 286.1618337 74.37210363 287.05605656 72.5 287.9375 C71.50291016 288.40929687 70.50582031 288.88109375 69.47851562 289.3671875 C50.87067392 297.9663556 30.59781959 303.45395572 10.01171875 303.578125 C8.8402253 303.58871445 8.8402253 303.58871445 7.64506531 303.59951782 C-25.06026255 303.82812277 -25.06026255 303.82812277 -38.5625 300.375 C-39.36171875 300.17632324 -40.1609375 299.97764648 -40.984375 299.77294922 C-74.16261201 291.28120336 -102.35492473 271.7311688 -120.38964844 242.35742188 C-144.93226528 200.87406451 -148.52167006 148.12710153 -137.25 101.875 C-128.30785662 67.6001632 -108.44825418 36.99834832 -77.57397461 18.64453125 C-66.62278848 12.41329438 -55.20954132 7.92768006 -43.0625 4.625 C-42.34022217 4.42616211 -41.61794434 4.22732422 -40.8737793 4.02246094 C-27.39346043 0.56147849 -13.8330854 -0.03261462 0 0 Z " fill="#FCFCFC" transform="translate(954.5625,728.625)"/>
<path d="M0 0 C102.96 0 205.92 0 312 0 C312 18.81 312 37.62 312 57 C209.04 57 106.08 57 0 57 C0 38.19 0 19.38 0 0 Z " fill="#FFFFFF" transform="translate(590,1204)"/>
<path d="M0 0 C13.2 0 26.4 0 40 0 C40 85.47 40 170.94 40 259 C86.86 259 133.72 259 182 259 C182 269.89 182 280.78 182 292 C121.94 292 61.88 292 0 292 C0 195.64 0 99.28 0 0 Z " fill="#FDFDFD" transform="translate(606,734)"/>
</svg>
